<svg width="52" height="50" viewBox="0 0 52 50" fill="none" xmlns="http://www.w3.org/2000/svg">
<path d="M49.9362 12.5H2.06382C1.18297 12.5 0.468079 13.2 0.468079 14.0625V48.4375C0.468079 49.3 1.18297 50 2.06382 50H49.9362C50.817 50 51.5319 49.3 51.5319 48.4375V14.0625C51.5319 13.2 50.817 12.5 49.9362 12.5ZM33.9787 27.9312C33.0979 27.9312 32.383 27.2312 32.383 26.3687C32.383 24.2812 30.6372 23.0875 29.1915 22.4594V39.0625C29.1915 41.6906 26.3894 43.75 22.8085 43.75C19.2277 43.75 16.4255 41.6906 16.4255 39.0625C16.4255 36.4344 19.2277 34.375 22.8085 34.375C23.9862 34.375 25.0617 34.6156 26 35.0062V20.3125C26 19.8469 26.2106 19.4062 26.5777 19.1094C26.9447 18.8125 27.4266 18.6938 27.8925 18.7781C30.5511 19.2656 35.5745 21.4812 35.5745 26.3687C35.5745 27.2312 34.8596 27.9312 33.9787 27.9312ZM45.1489 7.8125C45.1489 6.95 44.434 6.25 43.5532 6.25H8.4468C7.56595 6.25 6.85106 6.95 6.85106 7.8125V9.375H45.1489V7.8125ZM38.766 1.5625C38.766 0.7 38.0511 0 37.1702 0H14.8298C13.9489 0 13.234 0.7 13.234 1.5625V3.125H38.766V1.5625Z" fill="black"/>
</svg>
