<svg width="25" height="25" viewBox="0 0 25 25" fill="none" xmlns="http://www.w3.org/2000/svg">
<path d="M23.2441 0.302919C22.7263 0.00512933 22.1536 -0.0754818 21.6011 0.0716508C21.0487 0.218783 20.5421 0.586795 20.148 1.12745L13.0695 10.6783V3.86064C13.0705 3.10465 12.9045 2.36529 12.5924 1.73629C12.2804 1.10728 11.8364 0.616954 11.3167 0.32747C10.7971 0.0379853 10.2251 -0.037621 9.67347 0.110236C9.1218 0.258094 8.61522 0.622756 8.21796 1.15799L0.168042 11.9762C0.114795 12.0472 0.072532 12.1316 0.0436905 12.2246C0.014849 12.3177 0 12.4175 0 12.5183C0 12.619 0.014849 12.7188 0.0436905 12.8119C0.072532 12.9049 0.114795 12.9893 0.168042 13.0603L8.21796 23.8785C8.61522 24.4138 9.1218 24.7784 9.67347 24.9263C10.2251 25.0741 10.7971 24.9985 11.3167 24.709C11.8364 24.4196 12.2804 23.9292 12.5924 23.3002C12.9045 22.6712 13.0705 21.9319 13.0695 21.1759V14.3582L20.148 23.8785C20.5452 24.4138 21.0518 24.7784 21.6035 24.9263C22.1551 25.0741 22.7271 24.9985 23.2467 24.709C23.7664 24.4196 24.2104 23.9292 24.5224 23.3002C24.8345 22.6712 25.0005 21.9319 24.9995 21.1759V3.86064C25.0102 3.09826 24.848 2.34958 24.5344 1.71409C24.2209 1.0786 23.7708 0.586399 23.2441 0.302919Z" fill="black"/>
</svg>
