<svg width="40" height="37" viewBox="0 0 40 37" fill="none" xmlns="http://www.w3.org/2000/svg">
<path d="M28.1853 0C25.2077 0 22.2656 1.12886 20.0004 3.08569C17.7345 1.12874 14.7924 0 11.8147 0C5.18962 0 0 5.22514 0 11.8954C0 19.9584 5.57576 24.8867 14.0157 32.3466C14.737 32.9843 15.4816 33.6422 16.2477 34.3243L16.2635 34.3384L18.8117 36.5546C19.1531 36.8516 19.5769 37 20.0006 37C20.4243 37 20.8482 36.8514 21.1896 36.5545L23.7373 34.3382L23.7532 34.3243C28.7974 29.8327 32.5796 26.3941 35.3157 23.0407C38.5116 19.1239 40.0001 15.5824 40.0001 11.8955C40 5.22514 34.8104 0 28.1853 0ZM21.3507 31.5747L20.0004 32.7493L18.6492 31.5741C17.9057 30.9129 17.161 30.253 16.4152 29.5945C8.44681 22.5515 3.63716 18.3003 3.63716 11.8954C3.63716 7.2015 7.15271 3.66196 11.8147 3.66196C14.3516 3.66196 16.9563 4.88628 18.6121 6.85715C18.7828 7.06033 18.9955 7.22358 19.2354 7.33555C19.4752 7.44752 19.7364 7.50551 20.0007 7.50549C20.2651 7.50547 20.5263 7.44743 20.7661 7.33542C21.0059 7.2234 21.2185 7.06011 21.3893 6.85691C23.0443 4.88616 25.6485 3.66196 28.1854 3.66196C32.8473 3.66196 36.3628 7.2015 36.3628 11.8954C36.3628 17.9129 30.9386 23.0372 21.3507 31.5747Z" fill="black"/>
</svg>
