<svg width="50" height="50" viewBox="0 0 50 50" fill="none" xmlns="http://www.w3.org/2000/svg">
<path d="M49.6806 20.8671C49.41 21.3152 48.9961 21.6214 48.5297 21.7187C48.0633 21.816 47.5823 21.6964 47.1924 21.3861L25.9774 4.47927C25.6776 4.24123 25.322 4.11376 24.9578 4.11376C24.5936 4.11376 24.238 4.24123 23.9382 4.47927L2.78574 21.3861C2.39581 21.6874 1.91858 21.8001 1.45708 21.6998C0.995589 21.5996 0.586857 21.2944 0.319131 20.8502C0.0514052 20.406 -0.0538368 19.8584 0.0261269 19.3256C0.106091 18.7929 0.364845 18.3177 0.746525 18.0027L21.8989 1.09584C22.7979 0.382854 23.8637 0.00073645 24.9554 1.06343e-06C26.0471 -0.000734323 27.1133 0.379948 28.013 1.09172L49.228 17.9985C49.4216 18.1525 49.5868 18.3489 49.7144 18.5764C49.8419 18.804 49.9292 19.0583 49.9712 19.3248C50.0132 19.5912 50.0092 19.8646 49.9594 20.1293C49.9095 20.3939 49.8148 20.6447 49.6806 20.8671ZM42.2822 20.69L25.9827 8.13246C25.6885 7.90554 25.3423 7.78439 24.9882 7.78439C24.634 7.78439 24.2879 7.90554 23.9936 8.13246L7.69418 20.69C6.96062 21.2539 6.35933 22.0174 5.94369 22.913C5.52804 23.8086 5.31089 24.8085 5.31151 25.8239V43.8221C5.31293 45.4601 5.87877 47.0305 6.88485 48.1887C7.89093 49.347 9.25506 49.9984 10.6779 50H17.833V37.6442C17.833 36.0057 18.3984 34.4344 19.4048 33.2758C20.4112 32.1172 21.7761 31.4663 23.1994 31.4663H26.777C28.2002 31.4663 29.5652 32.1172 30.5716 33.2758C31.5779 34.4344 32.1433 36.0057 32.1433 37.6442V50H39.2985C40.7213 49.9984 42.0854 49.347 43.0915 48.1887C44.0976 47.0305 44.6634 45.4601 44.6648 43.8221V25.8239C44.6655 24.8085 44.4483 23.8086 44.0327 22.913C43.617 22.0174 43.0157 21.2539 42.2822 20.69ZM44.6648 4.69549C44.6648 3.60317 44.2879 2.55559 43.617 1.78321C42.9461 1.01082 42.0361 0.576899 41.0873 0.576899H39.2985C38.6749 0.57833 38.0626 0.768127 37.5227 1.12733C36.9828 1.48653 36.5342 2.00255 36.2218 2.62384L44.6648 9.35362V4.69549Z" fill="black"/>
</svg>
