<svg width="61" height="60" viewBox="0 0 61 60" fill="#000" xmlns="http://www.w3.org/2000/svg">
<path d="M59.5977 26.2969C59.3648 26.2969 59.1414 26.3896 58.9768 26.5546C58.8121 26.7196 58.7196 26.9434 58.7196 27.1768V32.8232C58.7196 33.9244 60.4757 33.9745 60.4757 32.8232V27.1768C60.4757 26.9434 60.3832 26.7196 60.2185 26.5546C60.0539 26.3896 59.8305 26.2969 59.5977 26.2969ZM55.9611 20.5571C55.7283 20.5571 55.5049 20.6498 55.3403 20.8148C55.1756 20.9799 55.0831 21.2037 55.0831 21.4371V38.5631C55.0831 39.6643 56.8392 39.7144 56.8392 38.5631V21.4371C56.8392 21.2037 56.7467 20.9799 56.582 20.8148C56.4173 20.6498 56.194 20.5571 55.9611 20.5571ZM52.3245 22.4734C52.0916 22.4734 51.8683 22.5661 51.7036 22.7311C51.5389 22.8961 51.4464 23.1199 51.4464 23.3533V36.6467C51.4464 37.7479 53.2025 37.798 53.2025 36.6467V23.3533C53.2025 23.1199 53.11 22.8961 52.9454 22.7311C52.7807 22.5661 52.5574 22.4734 52.3245 22.4734ZM48.688 16.5654C48.4551 16.5654 48.2318 16.6581 48.0671 16.8231C47.9024 16.9881 47.8099 17.2119 47.8099 17.4453V42.5548C47.8099 43.656 49.566 43.7061 49.566 42.5548V17.4453C49.566 17.2119 49.4735 16.9881 49.3088 16.8231C49.1442 16.6581 48.9208 16.5654 48.688 16.5654ZM1.35376 26.2969C1.12088 26.2969 0.897549 26.3896 0.732883 26.5546C0.568216 26.7196 0.475708 26.9434 0.475708 27.1768V32.8232C0.475708 33.9244 2.23181 33.9745 2.23181 32.8232V27.1768C2.23181 26.9434 2.1393 26.7196 1.97463 26.5546C1.80997 26.3896 1.58663 26.2969 1.35376 26.2969ZM4.9904 20.5571C4.75753 20.5571 4.53419 20.6498 4.36953 20.8148C4.20486 20.9799 4.11235 21.2037 4.11235 21.4371V38.5631C4.11235 39.6643 5.86845 39.7144 5.86845 38.5631V21.4371C5.86845 21.2037 5.77594 20.9799 5.61128 20.8148C5.44661 20.6498 5.22327 20.5571 4.9904 20.5571ZM8.62693 22.4734C8.39405 22.4734 8.17072 22.5661 8.00605 22.7311C7.84139 22.8961 7.74888 23.1199 7.74888 23.3533V36.6467C7.74888 37.7479 9.50498 37.798 9.50498 36.6467V23.3533C9.50498 23.1199 9.41247 22.8961 9.2478 22.7311C9.08313 22.5661 8.8598 22.4734 8.62693 22.4734ZM12.2636 16.5654C12.0307 16.5654 11.8074 16.6581 11.6427 16.8231C11.478 16.9881 11.3855 17.2119 11.3855 17.4453V42.5548C11.3855 43.656 13.1416 43.7061 13.1416 42.5548V17.4453C13.1416 17.2119 13.0491 16.9881 12.8844 16.8231C12.7198 16.6581 12.4964 16.5654 12.2636 16.5654ZM45.9041 23.5597C45.9206 23.4921 45.9291 23.4229 45.9294 23.3533V13.8837C45.9294 12.7825 44.1733 12.7324 44.1733 13.8837V20.4184C43.6126 19.6172 42.9834 18.8665 42.2927 18.1747V6.18308C42.2927 5.08187 40.5366 5.03177 40.5366 6.18308V16.6453C39.938 16.1927 39.3098 15.7809 38.6561 15.4128V8.58823C38.6561 7.48702 36.9 7.43692 36.9 8.58823V14.5549C36.2868 14.2988 35.6589 14.0799 35.0194 13.8995V3.60193C35.0194 2.50072 33.2633 2.45062 33.2633 3.60193V13.5071C32.6216 13.3994 31.9741 13.3295 31.3243 13.2976V0.844799C31.3243 -0.256411 29.5682 -0.306509 29.5682 0.844799V13.3041C28.9312 13.3397 28.3038 13.4113 27.6876 13.5168V3.60193C27.6876 2.50072 25.9315 2.45062 25.9315 3.60193V13.9157C25.2919 14.0987 24.6639 14.3202 24.051 14.579V8.58823C24.051 7.48702 22.2949 7.43692 22.2949 8.58823V15.4457C21.6409 15.8179 21.0126 16.2337 20.4143 16.6903V6.18308C20.4143 5.08187 18.6582 5.03177 18.6582 6.18308V18.2346C17.9664 18.9342 17.3372 19.6933 16.7777 20.503V13.8837C16.7777 12.7825 15.0216 12.7324 15.0216 13.8837V23.6058C15.0216 23.6509 15.026 23.6947 15.0326 23.738C14.2498 25.6732 13.8176 27.7868 13.8176 30C13.8176 32.1612 14.2231 34.2604 15.0216 36.2451V46.1163C15.0216 47.2175 16.7777 47.2676 16.7777 46.1163V36.4234C16.7777 34.2714 15.5737 33.4024 15.5737 30C15.5737 21.7495 22.2717 15.0371 30.5045 15.0371C38.7373 15.0371 45.4353 21.7494 45.4353 30C45.4353 38.2506 38.7378 44.9629 30.505 44.9629C26.6701 44.9629 23.0252 43.5085 20.2418 40.8676C19.6895 40.3435 18.6587 40.7393 18.6587 41.5065V53.8169C18.6587 54.9181 20.4148 54.9682 20.4148 53.8169V43.3195C21.0129 43.7759 21.6412 44.1913 22.2953 44.5627V51.4119C22.2953 52.5131 24.0514 52.5632 24.0514 51.4119V45.4264C24.6645 45.684 25.2925 45.9044 25.932 46.0863V56.3982C25.932 57.4994 27.6881 57.5495 27.6881 56.3982V46.485C28.3105 46.5907 28.9383 46.6611 29.5686 46.6959V59.1552C29.5686 60.2564 31.3247 60.3065 31.3247 59.1552V46.7024C31.9746 46.6705 32.6221 46.6005 33.2638 46.4929V56.3981C33.2638 57.4993 35.0199 57.5494 35.0199 56.3981V46.1005C35.6593 45.9201 36.2873 45.7012 36.9004 45.4451V51.4118C36.9004 52.513 38.6565 52.5631 38.6565 51.4118V44.5871C39.3102 44.2189 39.9385 43.8072 40.5371 43.3546V53.8168C40.5371 54.918 42.2932 54.9681 42.2932 53.8168V41.8252C42.9838 41.1334 43.613 40.3826 44.1737 39.5814V46.1162C44.1737 47.2174 45.9298 47.2675 45.9298 46.1162V36.6466C45.9298 36.5753 45.9205 36.5065 45.9045 36.4402C46.7335 34.4569 47.1923 32.2811 47.1923 29.9999C47.1923 27.7186 46.7331 25.543 45.9041 23.5597Z"/>
<path d="M33.7051 23.1251C34.7399 22.7548 34.1963 21.0805 33.1144 21.4678L26.8173 23.7216C26.4711 23.8454 26.2345 24.1837 26.2345 24.5503V32.9726C25.7774 32.7357 25.2702 32.6122 24.7555 32.6126C22.9718 32.6126 21.5204 34.0669 21.5204 35.8546C21.5204 37.6423 22.9717 39.0966 24.7555 39.0966C26.5394 39.0966 27.9906 37.6423 27.9906 35.8546V28.2074L35.6625 25.4615V29.5984C35.2054 29.3614 34.6982 29.2379 34.1835 29.2383C32.3998 29.2383 30.9485 30.6927 30.9485 32.4804C30.9485 34.268 32.3997 35.7224 34.1835 35.7224C35.9674 35.7224 37.4186 34.268 37.4186 32.4804V21.1761C37.4186 20.0749 35.6625 20.0248 35.6625 21.1761V23.593L27.9906 26.3389V25.1707L33.7051 23.1251ZM34.1837 33.9623C33.3681 33.9623 32.7047 33.2974 32.7047 32.4801C32.7047 31.6628 33.3681 30.998 34.1837 30.998C34.9992 30.998 35.6626 31.6628 35.6626 32.4801C35.6626 33.2974 34.9992 33.9623 34.1837 33.9623ZM24.7556 37.3368C23.9401 37.3368 23.2767 36.6719 23.2767 35.8546C23.2767 35.0373 23.9401 34.3724 24.7556 34.3724C25.5712 34.3724 26.2346 35.0373 26.2346 35.8546C26.2346 36.6719 25.5711 37.3368 24.7556 37.3368Z"/>
</svg>
