<svg width="40" height="40" viewBox="0 0 40 40" fill="none" xmlns="http://www.w3.org/2000/svg">
<path d="M36.4844 0H12.8906C10.9516 0 9.375 2.07077 9.375 4.61538C9.375 7.16103 10.9516 9.23077 12.8906 9.23077H36.4844C38.4227 9.23077 40 7.16103 40 4.61538C40 2.07077 38.4227 0 36.4844 0ZM36.4844 15.3846H12.8906C10.9516 15.3846 9.375 17.4554 9.375 20C9.375 22.5456 10.9516 24.6154 12.8906 24.6154H36.4844C38.4227 24.6154 40 22.5456 40 20C40 17.4554 38.4227 15.3846 36.4844 15.3846ZM36.4844 30.7692H12.8906C10.9516 30.7692 9.375 32.84 9.375 35.3846C9.375 37.9303 10.9516 40 12.8906 40H36.4844C38.4227 40 40 37.9303 40 35.3846C40 32.84 38.4227 30.7692 36.4844 30.7692ZM3.51562 0C1.57656 0 0 2.07077 0 4.61538C0 7.16103 1.57656 9.23077 3.51562 9.23077C5.45391 9.23077 7.03125 7.16103 7.03125 4.61538C7.03125 2.07077 5.45391 0 3.51562 0ZM3.51562 15.3846C1.57656 15.3846 0 17.4554 0 20C0 22.5456 1.57656 24.6154 3.51562 24.6154C5.45391 24.6154 7.03125 22.5456 7.03125 20C7.03125 17.4554 5.45391 15.3846 3.51562 15.3846ZM3.51562 30.7692C1.57656 30.7692 0 32.84 0 35.3846C0 37.9303 1.57656 40 3.51562 40C5.45391 40 7.03125 37.9303 7.03125 35.3846C7.03125 32.84 5.45391 30.7692 3.51562 30.7692Z" fill="black"/>
</svg>
