<svg width="25" height="25" viewBox="0 0 25 25" fill="none" xmlns="http://www.w3.org/2000/svg">
<path d="M1.75591 24.6971C2.27372 24.9949 2.84638 25.0755 3.39886 24.9283C3.95135 24.7812 4.45786 24.4132 4.85203 23.8725L11.9305 14.3217L11.9305 21.1394C11.9295 21.8953 12.0955 22.6347 12.4076 23.2637C12.7196 23.8927 13.1636 24.383 13.6833 24.6725C14.2029 24.962 14.7749 25.0376 15.3265 24.8898C15.8782 24.7419 16.3848 24.3772 16.782 23.842L24.832 13.0238C24.8852 12.9528 24.9275 12.8684 24.9563 12.7754C24.9852 12.6823 25 12.5825 25 12.4817C25 12.381 24.9852 12.2812 24.9563 12.1881C24.9275 12.0951 24.8852 12.0107 24.832 11.9397L16.782 1.12148C16.3848 0.586243 15.8782 0.221581 15.3265 0.0737237C14.7749 -0.0741337 14.2029 0.00147083 13.6833 0.290955C13.1636 0.58044 12.7196 1.07077 12.4076 1.69978C12.0955 2.32878 11.9295 3.06814 11.9305 3.82412V10.6418L4.85203 1.12148C4.45477 0.586243 3.94819 0.221581 3.39652 0.0737237C2.84485 -0.0741337 2.27293 0.00147083 1.75328 0.290955C1.23362 0.58044 0.789628 1.07077 0.477581 1.69978C0.165534 2.32878 -0.000510557 3.06814 0.000495911 3.82412L0.000495911 21.1394C-0.0101887 21.9017 0.152028 22.6504 0.465586 23.2859C0.779144 23.9214 1.22919 24.4136 1.75591 24.6971Z" fill="black"/>
</svg>
