<svg width="40" height="40" viewBox="0 0 40 40" fill="none" xmlns="http://www.w3.org/2000/svg">
<path fill-rule="evenodd" clip-rule="evenodd" d="M20 0C31.0457 0 40 8.9543 40 20C40 31.0457 31.0457 40 20 40C8.9543 40 0 31.0457 0 20C0 8.9543 8.9543 0 20 0ZM12.2833 11.25C11.8243 11.25 11.45 11.6243 11.45 12.0833V27.9167C11.45 28.3757 11.8244 28.75 12.2833 28.75H16.2167C16.6757 28.75 17.0501 28.3757 17.0501 27.9167V12.0833C17.0501 11.6243 16.6757 11.25 16.2167 11.25H12.2833ZM23.7833 11.25C23.3243 11.25 22.9499 11.6243 22.9499 12.0833V27.9167C22.9499 28.3757 23.3242 28.75 23.7833 28.75H27.7166C28.1756 28.75 28.55 28.3757 28.55 27.9167V12.0833C28.55 11.6243 28.1757 11.25 27.7166 11.25H23.7833Z" fill="black"/>
</svg>
