<svg width="40" height="40" viewBox="0 0 30 30" fill="none" xmlns="http://www.w3.org/2000/svg">
    <path d="M25.6069 4.39314C19.7493 -1.46438 10.2507 -1.46438 4.39314 4.39314C-1.46438 10.2507 -1.46438 19.7493 4.39314 25.6069C10.2507 31.4644 19.7493 31.4644 25.6069 25.6069C31.4644 19.7493 31.4644 10.2507 25.6069 4.39314ZM21.5541 15.9182L16.8681 18.6095L12.277 21.2691C12.1187 21.3958 11.8971 21.4591 11.6755 21.4591C11.0739 21.4591 10.5989 20.9842 10.5989 20.3826V9.58575C10.5989 9.39578 10.6306 9.23747 10.7256 9.04749C11.0106 8.5409 11.6755 8.35092 12.1821 8.66755L16.8048 11.3272C16.8364 11.3272 16.8364 11.3588 16.8681 11.3588L21.5541 14.0501C21.7124 14.1451 21.8391 14.2718 21.9657 14.4301C22.2507 14.9683 22.0607 15.6332 21.5541 15.9182Z" fill="#5B5B5B"/>
</svg>
