<svg width="20" height="20" viewBox="0 0 20 20" fill="black" xmlns="http://www.w3.org/2000/svg">
<path d="M7.60404 11.9508C7.16168 12.822 6.69325 13.6683 6.13436 14.4295C4.81762 16.2227 3.09927 16.6989 1.24532 16.5769C-0.419189 16.4672 -0.41102 19.8098 1.24532 19.9188C4.7285 20.1479 7.19057 18.1996 9.15071 14.8829C8.82793 14.3381 8.52965 13.7895 8.2567 13.2607C8.03206 12.8263 7.81473 12.3821 7.60404 11.9508ZM10.9667 9.29136C11.1457 9.65557 11.3224 10.0137 11.5007 10.3648C11.8275 9.78067 12.1761 9.21682 12.5683 8.69252C13.5585 7.3693 14.6867 6.82559 15.9253 6.67175C15.8467 6.79432 15.7704 6.91914 15.6912 7.04109C15.2387 7.73729 15.1624 8.71918 15.6912 9.40414C16.1565 10.0067 17.0631 10.1018 17.5165 9.40414C18.2148 8.33016 18.8819 7.22215 19.5801 6.14818C20.0349 5.55649 20.209 4.57246 19.6461 3.7831L17.3231 0.524729C16.1919 -1.06168 14.371 1.30711 15.4977 2.88778L15.7993 3.31072C14.5322 3.42811 13.3121 3.84543 12.1855 4.79341C11.3438 5.50181 10.636 6.41222 10.0045 7.40969C10.1314 7.63992 10.258 7.87386 10.3827 8.1181C10.582 8.50858 10.7775 8.90666 10.9667 9.29136Z"/>
<path d="M17.517 10.5958C17.2983 10.2599 16.9748 10.1077 16.6459 10.1077C16.2924 10.1077 15.9326 10.2839 15.6916 10.5958C15.1628 11.281 15.2391 12.2628 15.6916 12.9588C15.7708 13.0809 15.8472 13.206 15.9257 13.3285C14.6871 13.1748 13.5587 12.6307 12.5687 11.3076C12.0055 10.5549 11.5303 9.72258 11.0841 8.86196C10.6517 8.02806 10.247 7.16727 9.81764 6.32538C9.73557 6.16456 9.65127 6.01016 9.56746 5.85451C7.64177 2.27821 5.23349 0.0629883 1.79402 0.0629883C1.61423 0.0629883 1.4313 0.0691198 1.24573 0.081101C-0.383672 0.188313 -0.417867 3.42543 1.16652 3.42543C1.19259 3.42543 1.21884 3.42441 1.24573 3.42273C1.42466 3.41103 1.60184 3.4049 1.7779 3.4049C3.42716 3.4049 4.9449 3.95012 6.13459 5.57056C6.86602 6.56703 7.44321 7.70839 8.00844 8.86196C8.27653 9.40899 8.54218 9.95821 8.82039 10.4969C9.05953 10.9602 9.30754 11.4204 9.56681 11.8691C10.306 13.1476 11.1444 14.3304 12.1856 15.2068C13.3122 16.1548 14.5323 16.572 15.7993 16.6892L15.4978 17.1122C14.6335 18.3245 15.5028 20 16.4655 20C16.758 20 17.0594 19.8449 17.3231 19.4753L19.6464 16.2171C20.2092 15.4276 20.0351 14.4436 19.5804 13.852C18.8823 12.7774 18.2153 11.6701 17.517 10.5958Z"/>
</svg>
