<svg width="25" height="25" viewBox="0 0 25 25" fill="black" xmlns="http://www.w3.org/2000/svg">
<path d="M15.9504 6.25293H10.0006C8.91285 6.2526 7.8405 6.48694 6.87177 6.93669C5.90303 7.38644 5.06558 8.03876 4.42827 8.84C3.79096 9.64124 3.37198 10.5685 3.2058 11.5456C3.03961 12.5227 3.13096 13.5217 3.47233 14.4604C3.68727 15.0533 3.5948 15.7269 3.10992 16.1676L3.00245 16.2641C2.30263 16.9002 1.12918 16.79 0.753028 15.9597C0.127612 14.5792 -0.113925 13.08 0.0497726 11.5944C0.21347 10.1089 0.77736 8.68295 1.69158 7.44262C2.6058 6.20228 3.84219 5.18579 5.29141 4.48302C6.74064 3.78026 8.35806 3.41288 10.0006 3.41336H15.9491L14.8606 2.42405C14.7156 2.29219 14.6005 2.13566 14.522 1.96338C14.4435 1.7911 14.4031 1.60645 14.4031 1.41997C14.4031 1.04337 14.5677 0.682198 14.8606 0.415901C15.1536 0.149604 15.551 0 15.9654 0C16.3797 0 16.7771 0.149604 17.0701 0.415901L20.8254 3.82907C20.9704 3.96092 21.0856 4.11745 21.1641 4.28973C21.2426 4.46201 21.283 4.64666 21.283 4.83314C21.283 5.01963 21.2426 5.20428 21.1641 5.37656C21.0856 5.54884 20.9704 5.70537 20.8254 5.83722L17.0701 9.25039C16.925 9.38225 16.7528 9.48684 16.5632 9.5582C16.3737 9.62956 16.1705 9.66629 15.9654 9.66629C15.7602 9.66629 15.557 9.62956 15.3675 9.5582C15.1779 9.48684 15.0057 9.38225 14.8606 9.25039C14.7156 9.11853 14.6005 8.962 14.522 8.78972C14.4435 8.61744 14.4031 8.43279 14.4031 8.24632C14.4031 8.05984 14.4435 7.87519 14.522 7.70291C14.6005 7.53063 14.7156 7.3741 14.8606 7.24224L15.9504 6.25293ZM10.1394 22.576L9.05089 21.5866H14.9994C16.6419 21.5871 18.2594 21.2197 19.7086 20.517C21.1578 19.8142 22.3942 18.7977 23.3084 17.5574C24.2226 16.317 24.7865 14.8911 24.9502 13.4056C25.1139 11.92 24.8724 10.4208 24.247 9.04026C23.8696 8.20997 22.6974 8.09979 21.9975 8.73586L21.8901 8.8324C21.4052 9.27311 21.3115 9.94665 21.5277 10.5396C21.869 11.4783 21.9604 12.4773 21.7942 13.4544C21.628 14.4315 21.209 15.3588 20.5717 16.16C19.9344 16.9612 19.097 17.6136 18.1282 18.0633C17.1595 18.5131 16.0872 18.7474 14.9994 18.7471H9.05089L10.1381 17.7566C10.2902 17.6263 10.412 17.4696 10.4962 17.2957C10.5804 17.1219 10.6254 16.9344 10.6285 16.7445C10.6316 16.5545 10.5927 16.3659 10.5141 16.1899C10.4355 16.0139 10.3189 15.8539 10.1711 15.7196C10.0233 15.5853 9.84738 15.4793 9.6537 15.4079C9.46001 15.3365 9.25253 15.3011 9.04354 15.3039C8.83456 15.3067 8.62831 15.3476 8.43703 15.4242C8.24574 15.5007 8.0733 15.6114 7.92993 15.7496L4.17465 19.1628C4.02955 19.2946 3.91445 19.4512 3.83592 19.6234C3.75739 19.7957 3.71697 19.9804 3.71697 20.1669C3.71697 20.3533 3.75739 20.538 3.83592 20.7103C3.91445 20.8826 4.02955 21.0391 4.17465 21.1709L7.92993 24.5841C8.22292 24.8504 8.62029 25 9.03464 25C9.44899 25 9.84637 24.8504 10.1394 24.5841C10.4323 24.3178 10.5969 23.9566 10.5969 23.58C10.5969 23.2034 10.4323 22.8422 10.1394 22.576Z" />
</svg>
