<svg width="30" height="30" viewBox="0 0 30 30" fill="none" xmlns="http://www.w3.org/2000/svg">
<g clip-path="url(#clip0_55_1178)">
<path d="M26.4404 20.7749C31.1866 16.0287 31.1865 8.30592 26.4404 3.55968C21.6941 -1.18656 13.9714 -1.18656 9.22526 3.55968C5.19869 7.58622 4.58887 13.5747 7.39415 18.2511C7.39415 18.2511 7.59565 18.5891 7.3235 18.8611L1.11288 25.0717C-0.123287 26.3077 -0.417567 28.0362 0.678663 29.1326L0.867408 29.3211C1.96364 30.4176 3.69221 30.1234 4.92828 28.8872L11.1259 22.6897C11.411 22.4045 11.749 22.606 11.749 22.606C16.4253 25.4112 22.4138 24.8014 26.4404 20.7749ZM11.4726 18.5275C7.9656 15.0205 7.9657 9.31429 11.4727 5.80731C14.9797 2.30042 20.6859 2.30032 24.1929 5.80731C27.6999 9.31419 27.6999 15.0205 24.1929 18.5275C20.6858 22.0343 14.9797 22.0343 11.4726 18.5275Z" fill="black"/>
<path d="M12.2495 11.4448C12.0863 11.4448 11.9204 11.4127 11.7604 11.3451C11.1215 11.0747 10.8226 10.3375 11.093 9.69854C12.7926 5.68215 17.4428 3.79732 21.4591 5.49688C22.098 5.76729 22.3969 6.50448 22.1265 7.14349C21.856 7.78249 21.119 8.08122 20.4798 7.8109C17.7396 6.65138 14.5666 7.93741 13.4071 10.6776C13.2043 11.1569 12.739 11.4448 12.2495 11.4448Z" fill="black"/>
</g>
<defs>
<clipPath id="clip0_55_1178">
<rect width="30" height="30" fill="white"/>
</clipPath>
</defs>
</svg>
