<svg width="20" height="20" viewBox="0 0 20 20" fill="none" xmlns="http://www.w3.org/2000/svg">
<path d="M13 2.04265V17.9562C13 19.4961 11.23 20.7304 9.68999 19.4961L4.127 14.584H2C0.9635 14.584 0 13.7277 0 12.5464V7.45245C0 6.36132 0.881 5.41486 2 5.41486H4.1265L9.68999 0.502738C11 -0.653595 13 0.320883 13 2.04265ZM17.998 3.72366C19.296 5.35425 20.003 7.39063 20 9.49004C20 11.8827 19.095 14.1332 17.504 15.828C17.3206 16.0232 17.0686 16.1362 16.8034 16.1421C16.5382 16.148 16.2816 16.0464 16.09 15.8596C15.8984 15.6727 15.7875 15.416 15.7816 15.1458C15.7758 14.8756 15.8756 14.6142 16.059 14.419C17.3073 13.0935 18.0029 11.3269 18 9.49004C18 7.83348 17.445 6.26658 16.4435 5.00632C16.3608 4.90234 16.2991 4.78278 16.2618 4.65448C16.2244 4.52617 16.2123 4.39164 16.226 4.25855C16.2397 4.12547 16.2791 3.99644 16.3417 3.87884C16.4044 3.76123 16.4892 3.65735 16.5912 3.57313C16.7974 3.40304 17.0614 3.32334 17.3252 3.35157C17.4558 3.36555 17.5825 3.40561 17.6979 3.46945C17.8134 3.53329 17.9153 3.61967 17.998 3.72366ZM16.1165 6.29612C16.6956 7.25688 17.0014 8.3626 17 9.49004C17 10.9052 16.525 12.2489 15.67 13.3278C15.503 13.5368 15.2615 13.6698 14.9984 13.6977C14.7354 13.7257 14.4722 13.6463 14.2664 13.4771C14.0606 13.3078 13.9291 13.0623 13.9005 12.7945C13.8719 12.5266 13.9487 12.2581 14.114 12.0477C14.6889 11.3241 15.0017 10.421 15 9.49004C15 8.72697 14.795 7.997 14.412 7.36178C14.2733 7.13143 14.2301 6.85438 14.2919 6.59158C14.3537 6.32877 14.5154 6.10174 14.7415 5.96043C14.9676 5.81911 15.2395 5.77509 15.4975 5.83804C15.7554 5.901 15.9778 6.06577 16.1165 6.29612Z" fill="black"/>
</svg>
